<?xml version="1.0" encoding="utf-8"?>
<!-- Generator: Adobe Illustrator 21.1.0, SVG Export Plug-In . SVG Version: 6.00 Build 0)  -->
<svg version="1.1" id="Layer_1" xmlns="http://www.w3.org/2000/svg" xmlns:xlink="http://www.w3.org/1999/xlink" x="0px" y="0px"
	 viewBox="0 0 236.3 161.7" style="enable-background:new 0 0 236.3 161.7;" xml:space="preserve">
<path d="M121.5,0.3c36.9,1.7,66.3,14.7,90.4,39.5c9.3,9.6,17.4,20.2,22.6,32.7c2.4,5.7,2.5,11.2,0,16.9
	c-9.7,21.6-25.1,38.4-44.8,51.2c-46.9,30.4-107.4,28-151.6-6c-15.3-11.8-27.8-26.3-35.9-44.2c-2.9-6.4-2.9-12.4,0-18.8
	c9.3-20.2,23.9-35.9,41.9-48.6C66.3,7.2,97.6-1.6,121.5,0.3z M212.6,103.4c-9.3,3.4-17.4,6.9-25.8,9.4c-32.7,9.8-66.2,11.4-100,7.7
	c-11.5-1.3-22.9-4.4-34.2-6.8c-3.6-0.8-5.6-3.2-4.9-6.9c0.7-3.8,3.5-5.1,7.1-4.7c1.8,0.2,3.6,0.8,5.3,1.3c35.2,8.8,70.6,9.1,106,2.4
	c19.1-3.6,37.3-10.1,53.4-21.4c5.9-4.1,5.9-4.6,2.6-10.9c-11.3-21.7-28.3-38.1-50-48.7C135.5,6.9,98.4,7.2,62.1,26
	C40.9,37,24.2,53,13.5,74.7c-2.1,4.3-2,8.1,0.1,12.4c9.2,18.9,23.4,33.2,40.8,44.2c27,17.2,56.6,22,87.8,16
	C170.7,141.8,193.7,126.8,212.6,103.4z"/>
<path d="M99.9,58.2c-4.4,0.4-8.3,0.8-12.5,1.2c0,4.5,1.6,10-4.8,11c-6,0.9-6.6-4.2-7.5-8.9c-3.1,0.5-5.8,1.1-8.6,1.4
	c-3.8,0.4-7.2-0.4-7.8-4.9c-0.6-4.1,2-6,5.6-6.9c2.7-0.6,5.5-1.2,8.5-1.8c0.1-4.3-1.8-9.8,4.5-11c6.5-1.2,6.3,4.8,8.1,9
	c4.5-0.5,8.9-0.9,13.5-1.4c-0.1-4.7-0.9-9.9,5.2-10.4c6.4-0.5,6.2,5.1,7.1,9.6c4.6,0,9,0,13.3,0c1.5-7.8,3.3-10.1,7.3-9.5
	c5.9,0.9,5.2,5.5,5.2,10.3c4.4,0.5,8.7,1,13.3,1.5c2.1-4,1.8-10.8,8.9-8.9c5.4,1.4,4.6,6.1,3.7,10.9c2.7,0.6,5.3,1.1,7.8,1.7
	c4.8,1.1,7,3.7,6.3,7.4c-0.7,3.6-4,5.2-8.7,4.2c-2.1-0.4-4.2-0.9-6.7-1.4c-1.5,4.3-1.6,10.5-8.6,8.8c-5.6-1.4-4.4-6.2-3.9-10.7
	c-4.2-0.5-8.1-0.9-12.2-1.4c-1.1,4.4-0.6,10.3-7,9.8c-6-0.5-5.3-5.8-5.6-10.3c-4.1,0-8,0-12.1,0c-0.6,4.5,0.8,10.5-6.2,10.5
	C100.4,67.9,100.2,63.1,99.9,58.2z"/>
</svg>
