<?xml version="1.0" encoding="utf-8"?>
<!-- Generator: Adobe Illustrator 21.1.0, SVG Export Plug-In . SVG Version: 6.00 Build 0)  -->
<svg version="1.1" id="Layer_1" xmlns="http://www.w3.org/2000/svg" xmlns:xlink="http://www.w3.org/1999/xlink" x="0px" y="0px"
	 viewBox="0 0 176 273.2" style="enable-background:new 0 0 176 273.2;" xml:space="preserve">
<style type="text/css">
	.st0{fill:url(#SVGID_1_);}
	.st1{fill:url(#SVGID_2_);}
	.st2{fill:url(#SVGID_3_);}
	.st3{fill:url(#SVGID_4_);}
	.st4{fill:url(#SVGID_5_);}
	.st5{fill:url(#SVGID_6_);}
	.st6{fill:url(#SVGID_7_);}
</style>
<g>
	<linearGradient id="SVGID_1_" gradientUnits="userSpaceOnUse" x1="31.3978" y1="0.2737" x2="162.9533" y2="258.4959">
		<stop  offset="0" style="stop-color:#140F1E"/>
		<stop  offset="1" style="stop-color:#AF6B2C"/>
	</linearGradient>
	<path class="st0" d="M142.4,135.7c-4-2.9-8.3-4.9-12.8-6.6c-1.4-1.9-3.3-3.4-5.7-4.5c-1-0.5-2-0.9-3-1.4c-0.3-0.1-0.5-0.3-0.6-0.5
		c0-2.1,0-4.3,0-6.5c4.3,0,8.3,0,12.3,0c7.9-0.1,12.8-4.5,13.6-12.3c1.8-16.7,3.6-33.4,5.3-50.2c1.4-13.7,3.1-27.3,2.8-41.1
		C154.2,5.1,149.1,0,141.7,0C107.5,0.2,73.4,0.2,39.2,0c-7.6,0-13.1,5.2-12.7,12.7c0.6,9.7,0.7,19.5,1.6,29.1
		c1.9,20.5,4.2,40.9,6.4,61.4c0.9,8.7,5.7,12.9,14.4,12.9c4,0,7.9,0,12,0c0,3.5,0,6.6,0,9.8c-7.6,2.1-14.8,4.7-21.3,9.1
		c-7.4,5-12.8,11.3-12.9,20.7c0,5.4-0.2,10.9,0.5,16.2c1.9,13.9,7.8,25.8,19.4,34.2c4.2,3,8.9,5.4,13.7,8.2c-1.6,6.3-3.2,13-5,19.6
		c-0.2,0.8-1.2,1.4-1.9,2c-2.5,1.9-5.3,3.5-7.5,5.7c-5.5,5.6-5.3,13.2,0.6,18.3c3.3,2.8,7,5.5,11,7.1c19.1,7.5,38.6,7.8,58.4,2.7
		c7.1-1.8,13.7-4.7,19-10c5.3-5.2,5.7-12.5,0.5-17.8c-2.3-2.3-5.2-4.1-7.8-6.1c-0.7-0.6-1.7-1.2-2-2c-1.8-6.6-3.5-13.2-5.3-20
		c6.7-2.4,12.6-5.6,17.5-10.3c15.1-14.4,18.5-32.5,15.7-52.3C152.8,144.2,147.9,139.7,142.4,135.7z M129.8,151.7c0,4-1.9,7.2-4.6,10
		c-4.7,4.8-10.6,7.2-16.9,8.7c-9.1,2.2-18.2,1.9-27.4,0.7c-4.8-0.6-9.5-1.5-14-3.4c-5.9-2.5-10.6-6.4-13.3-12.4
		c-2.4-5.5-1.4-12.8,3.5-17c0.6-0.5,1.4-1,2-1.4c0.8,2,1.3,3.9,2.3,5.6c2.8,4.9,7.2,7.7,12.5,9.4c5.5,1.8,11.1,2.5,16.8,3
		c6.3,0.5,12.5,0.5,18.7-0.7c5.4-1,10.5-2.6,15.2-5.5C127.2,147,129.8,149.2,129.8,151.7z M120.9,131c1.5,1.3,3,2.7,4.2,4.4
		c1.9,2.7,1.2,5.3-1.5,7.1c-1.4,0.9-2.9,1.6-4.4,2.2c-6.7,2.6-13.6,4-20.6,4.2c-8.2,0.1-15.9-1.4-23.3-4.5c-3.5-1.5-6.6-3.4-8.2-7
		c-1.3-2.9-1.5-5.8,0.3-8.6c1.7-2.6,4.2-3,6.8-1.3c13.4,9,27.4,10.1,42,3.3C118,129.9,119.5,129.7,120.9,131z M65.7,123.3
		c0-2.4,0-4.6,0-6.9c3,0,6.1,0,9.1,0c-0.1,0.2-0.1,0.3-0.2,0.5c-0.6,2.2-1.9,3.1-3.9,3.5C68.7,120.8,67,121.8,65.7,123.3z
		 M81.6,116.2c1.5-1.1,3.1-2,4.8-2.8c4.8-2.2,9.6-4.3,14.7-6.6c0.6,4,3.5,6.2,6.2,8.4c1.2,1,2.3,1.9,3.5,3c1.5,1.4,2.6,3,2.8,5.1
		c0.2,1.7-0.4,2.6-2,3.1c-4.3,1.5-8.8,2-13.4,1.8c-4.7-0.1-9.3-1.1-13.7-3c-1.4-0.6-2.8-1.6-3.9-2.7
		C78.9,120.5,79.3,117.9,81.6,116.2z M31.2,10.5c0.1-3.3,2.9-5.7,6.3-5.9c0.7,0,1.5,0,2.2,0c33.7,0,67.5,0,101.2,0
		c6.7,0,8.9,2.3,8.9,9c0,3.5,0,7-0.1,10.5c0,0.2-0.1,0.5-0.3,0.8c-39.4,0-78.7,0-118.4,0C31.1,19.9,31,15.2,31.2,10.5z M49,112
		c-4.1,0-7.6-1.1-9.3-5.3c-0.3-0.8-0.5-1.6-0.6-2.4c-2.5-23.3-5-46.7-7.4-70c-0.2-1.5-0.2-3-0.3-4.6c39.4,0,78.7,0,118.2,0
		c-1,10-2,19.7-3.1,29.5c-1.6,14.8-3.2,29.6-4.8,44.4c-0.6,5.5-3.6,8.3-9.2,8.4c-5.8,0.1-11.5,0-17.3,0c0,0,0,0,0,0
		c-1.6-1.4-3.4-2.7-4.9-4.2c-2.3-2.3-3.4-4.9-2.2-8.3c0.5-1.5-0.1-2.5-1.7-3c-2.1-0.7-3.7,0.5-4.9,1.9c-2.9,3.4-6.5,5.4-10.5,7
		c-3.6,1.4-7.1,2.9-10.5,4.8c-0.9,0.5-1.8,1.1-2.6,1.8C68.2,112,58.6,112,49,112z M36.5,143.4c6.3-6.4,14.2-9.7,22.6-12.2
		c0.1,0,0.2-0.1,0.3-0.1c-1.1,1.1-2.4,2.1-3.8,3.1c-4.6,3.1-7.5,7.5-8.6,12.8c-0.3,1.6-0.5,3.1-0.5,4.7c-0.4,2.1-0.4,4.2,0.2,6.3
		c1.2,4.6,4.1,8,7.8,10.6c1.6,1.3,3.3,2.4,5.2,3.3c1.8,0.8,3.6,1.6,5.4,2.3c1.8,0.7,3.6,1.3,5.5,1.8c0,0,0,0,0,0
		c0.4,0.1,0.8,0.2,1.2,0.3c5.6,1.4,11,2.1,15.7,2.2c0.5,0,0.9,0,1.4,0c0.9,0,1.7,0.1,2.6,0.1c0.7-0.1,1.5-0.1,2.2-0.2
		c3.3-0.2,6.4-0.5,9.3-1c0.6-0.1,1.2-0.2,1.8-0.3c8.8-1.5,17.1-4.4,23.9-10.4c3.6-3.2,5.6-6.9,5.9-10.7c0.9-3.6,0.7-7.3-0.9-11.4
		c-1.2-2.8-1.9-5.6-2.1-8.7c0-0.4-0.1-0.7-0.1-1.1c4.5,2.1,8.8,4.9,12.5,8.2c7.6,6.9,7.3,16-0.1,23.2c-4.8,4.6-10.5,7.7-16.7,9.8
		c-24.6,8.3-49.2,8.3-73.8,0c-7-2.4-13.5-5.8-18.3-11.7C29.8,157.3,30.2,149.8,36.5,143.4z M126.2,239.7c2.3,1.9,4.5,3.4,6.2,5.4
		c3.4,3.9,3.4,8.1-0.5,11.5c-3.4,2.9-7.5,5.5-11.6,7c-17.1,6.2-34.5,6.4-52.1,2.3c-5.6-1.3-11-3.4-15.8-6.7
		c-7.6-5.2-7.6-11.9,0-17.2c0.9-0.7,1.9-1.2,3.1-2c2.5,7.5,8.6,10.5,15.1,12.5c15,4.6,30,4.4,44.7-1.7
		C120.3,248.6,124,245.3,126.2,239.7z M121.6,235.9c0.9,3.7-1.4,6.2-4,8.2c-4.1,3.1-8.9,4.6-13.8,5.6c-10.7,2-21.4,2-31.8-1.5
		c-3.8-1.3-7.5-2.7-10.3-5.9c-2-2.3-2.8-4.7-1.9-7.8c1.8-6.4,3.4-12.8,5.1-19.5c8.5,2.4,17.1,3.4,25.7,3.5c8.7,0.1,17.2-1,25.7-3.4
		C118.2,222.3,120,229.1,121.6,235.9z M137.8,197.4c-9.4,10.5-22,14.6-35.5,16.1c-10.7,1.2-21.2,0.7-31.8-1.3
		C48,207.8,32.4,190,31.3,166.7c13.1,13.6,29.9,17.5,47.3,19.3c17.2,1.7,34.1,0.2,50.4-5.8c7.7-2.8,14.7-6.7,20.2-12.9
		c0.1-0.2,0.4-0.2,0.8-0.5C149.2,178.4,145.5,188.8,137.8,197.4z"/>
	<linearGradient id="SVGID_2_" gradientUnits="userSpaceOnUse" x1="-21.9594" y1="27.4574" x2="109.5961" y2="285.6796">
		<stop  offset="0" style="stop-color:#140F1E"/>
		<stop  offset="1" style="stop-color:#AF6B2C"/>
	</linearGradient>
	<path class="st1" d="M23.2,86.3c-1.5-0.7-3.8-0.3-4.9,1.3c-0.8,1.1-1.3,2.4-1.8,3.7c-0.4,1.2-0.5,2.6-0.9,3.8
		c-0.5,1.6-1.6,2-3.2,1.8c-1.2-0.2-2.4-0.3-3.6-0.5c0,0,0,0.1,0,0.1c-0.3,0-0.5,0-0.8,0c-2.4,0.2-4.7,0.4-6.7,2
		c-1.9,1.6-1.8,3.8,0.1,5.3c0.5,0.4,1.1,0.8,1.8,1c2.6,1,5.3,1.1,7.9-0.2c2.4-1.2,4.8-2.3,7.7-2.1c1.1,0.1,2.2-0.6,2.2-1.8
		c0.1-2,1.1-3.6,2-5.3c0.8-1.5,1.5-3,2-4.6C25.5,88.8,24.7,87.1,23.2,86.3z M14.7,100.8c-2.1,0.8-4.2,1.8-6.4,2.4
		c-2,0.6-4-0.3-4.9-1.8c-0.7-1.2-0.5-1.8,0.8-2.2c3.7-1.1,8.1-0.8,11.3,0.8C15.1,100.4,14.9,100.7,14.7,100.8z M21,94.9
		c-0.3,0.6-1.2,1.2-1.8,1.2c-1,0-1-1.1-0.9-1.9c0.2-1.4,0.3-2.8,0.8-4c0.7-1.7,2.5-2.1,4.3-1.2C22.6,91,21.9,93,21,94.9z"/>
	<linearGradient id="SVGID_3_" gradientUnits="userSpaceOnUse" x1="83.0118" y1="-26.0219" x2="214.5673" y2="232.2003">
		<stop  offset="0" style="stop-color:#140F1E"/>
		<stop  offset="1" style="stop-color:#AF6B2C"/>
	</linearGradient>
	<path class="st2" d="M174.1,131.1c-0.1-0.1-0.3-0.2-0.4-0.3c-2.1-1.4-4.1-2.8-6.3-4c-0.8-0.5-2-0.7-2.9-0.6c-3,0.5-5.9,1.4-8.3,3.3
		c-1.1,0.9-2.1,2-2.7,3.3c-0.9,1.7,0,3.4,1.8,4c1.5,0.5,3,0.2,4.2-0.6c1.1-0.7,2.1-1.6,3.1-2.4c1.1-0.9,1.5-0.8,2.4,0.2
		c0.7,0.7,1.3,1.4,2.1,2.1c1.3,1.1,2.7,1.9,4.1,1.9c2.2,0,4-1.2,4.5-2.7C176.4,133.8,175.8,132.4,174.1,131.1z M162.2,131.4
		c-0.3,0.7-0.8,1.4-1.4,1.7c-1.4,0.7-2.8,1.3-4.3,1.8c-1.1,0.3-1.6-0.4-1.2-1.4c0.6-1.8,3.6-3.9,5.5-4
		C162.1,129.4,162.7,130.3,162.2,131.4z M173.2,135.7c-1.6,0.5-5.3-1.4-5.9-3c-0.4-1.1,0.4-2,1.8-2c1.6,0,4.5,2,5,3.5
		C174.5,135.1,174,135.5,173.2,135.7z"/>
	<linearGradient id="SVGID_4_" gradientUnits="userSpaceOnUse" x1="19.1726" y1="6.502" x2="150.7281" y2="264.7242">
		<stop  offset="0" style="stop-color:#140F1E"/>
		<stop  offset="1" style="stop-color:#AF6B2C"/>
	</linearGradient>
	<path class="st3" d="M60.3,77.7c-3.8-4.1-4.8-8.7-2.6-13.9c0.1-0.3-0.1-0.7-0.1-1.1c-0.4,0.1-0.8,0.2-1.1,0.4
		c-0.3,0.2-0.4,0.6-0.5,1c-1.6,4-1.6,8.1,0.6,11.9c1.1,1.8,2.6,3.4,4.1,5c1.6,1.8,2.2,3.8,1.3,6.1c-0.7,1.7-1.7,3.4-2.7,5
		c-1.2,1.9-2.1,3.7-2.1,6c0,1.9,0.5,3.7,1.7,5.2c0.4,0.4,0.9,0.8,1.4,1c0.3,0.1,0.9-0.2,1.1-0.5c0.2-0.2,0.1-0.8-0.1-1
		c-2.7-3.3-2.3-6.6-0.2-10c0.9-1.4,1.8-2.9,2.6-4.3c1.3-2.3,1.2-4.7-0.3-6.9C62.5,80.2,61.5,78.9,60.3,77.7z"/>
	<linearGradient id="SVGID_5_" gradientUnits="userSpaceOnUse" x1="40.2035" y1="-4.2126" x2="171.7591" y2="254.0096">
		<stop  offset="0" style="stop-color:#140F1E"/>
		<stop  offset="1" style="stop-color:#AF6B2C"/>
	</linearGradient>
	<path class="st4" d="M79.5,88c-0.1-0.7-0.1-1.5-0.2-2.2c-0.4-1.6-1-3.2-1.3-4.9c-0.6-3.1,0-6,2.5-8.2c1-0.9,1.9-1.9,2.8-2.9
		c1.4-1.6,1.7-3.5,0.8-5.4c-1.5-3.2-3.1-6.4-4.8-9.9c-0.2,0.7-0.6,1.4-0.6,2.1c0.1,1,0.4,2,0.8,2.9c0.6,1.4,1.5,2.6,2.2,4
		c1.5,2.8,1.1,4.8-1.5,6.8c-0.6,0.4-1.2,0.8-1.7,1.4c-0.9,1.2-2,2.3-2.3,3.7c-1,3.7-0.4,7.3,0.9,10.8c0.3,0.8,1.2,1.5,1.8,2.2
		C79.1,88.2,79.3,88.1,79.5,88z"/>
	<linearGradient id="SVGID_6_" gradientUnits="userSpaceOnUse" x1="68.8421" y1="-18.803" x2="200.3977" y2="239.4192">
		<stop  offset="0" style="stop-color:#140F1E"/>
		<stop  offset="1" style="stop-color:#AF6B2C"/>
	</linearGradient>
	<path class="st5" d="M116.6,84.8c0.4-1.1-0.4-1.7-0.9-2.4c-2.4-3-2.5-5.5-0.1-8.6c0.4-0.6,0.9-1.1,1.3-1.7
		c3.8-4.3,1.6-8.8-1.1-11.5c-0.6-0.6-1.1-0.5-1.5,0.2c0.3,0.4,0.5,0.7,0.7,1.1c2.5,4.2,2.6,6.6-0.6,9.9c-1.5,1.6-2.3,3.6-2.5,5.8
		C111.7,80.8,113.8,84.1,116.6,84.8z"/>
	<linearGradient id="SVGID_7_" gradientUnits="userSpaceOnUse" x1="71.4817" y1="-20.1478" x2="203.0373" y2="238.0745">
		<stop  offset="0" style="stop-color:#140F1E"/>
		<stop  offset="1" style="stop-color:#AF6B2C"/>
	</linearGradient>
	<path class="st6" d="M131.7,107.3c0.3,0.1,0.9-0.1,1.1-0.4c0.1-0.2-0.1-0.9-0.4-1.1c-1.3-0.8-1.8-2-1.7-3.3
		c0.1-1.3,0.5-2.5,0.9-3.8c0.4-1.2,1.1-2.2,1.5-3.4c0.8-2.4,0.7-4.8-0.5-7c-0.7-1.3-1.6-1.7-2.7-1.2c0,0,0,0.1,0,0.1
		c0.1,0.2,0.2,0.4,0.3,0.6c1.9,2.9,2,5.9,0.4,8.9c-0.4,0.7-0.8,1.3-1.1,2c-1.2,2.6-1.1,5.1,0.6,7.4
		C130.5,106.6,131.1,107,131.7,107.3z"/>
</g>
</svg>
